<svg version="1.1" id="Layer_1" xmlns="http://www.w3.org/2000/svg" xmlns:xlink="http://www.w3.org/1999/xlink" x="0px" y="0px"
	 width="100%" viewBox="0 0 380 501" enable-background="new 0 0 380 501" xml:space="preserve">
<path fill="#0F0F0F" opacity="1.000000" stroke="none" 
	d="
M381.000000,207.000000 
	C381.000000,225.020889 381.000000,243.041794 380.703369,261.734131 
	C379.810608,264.088287 378.975159,265.726746 378.654755,267.460388 
	C374.842377,288.088806 368.042694,307.601746 358.040314,326.103546 
	C345.469604,349.356018 328.366974,368.704956 307.829071,384.986877 
	C288.579285,400.247589 266.959290,411.214691 243.205658,417.806366 
	C241.098160,418.391205 239.068268,419.255615 237.002335,419.990173 
	C236.874283,420.451996 236.746231,420.913849 236.618179,421.375702 
	C237.353439,421.773438 238.178329,422.062653 238.810654,422.585022 
	C250.483826,432.228424 262.131897,441.902222 273.790588,451.563232 
	C276.680817,453.958252 279.775024,456.069580 276.036469,460.381012 
	C268.625275,468.927948 261.315308,477.571075 254.226257,486.385712 
	C250.214706,491.373779 246.724838,496.781372 243.000000,502.000000 
	C241.285645,502.000000 239.571289,502.000000 237.329010,501.674591 
	C233.940994,498.617493 231.229431,495.707367 228.197113,493.182526 
	C205.686050,474.438812 183.171127,455.698761 160.532425,437.109772 
	C148.406754,427.153229 136.943283,416.863800 121.246658,411.485413 
	C91.159409,401.176117 66.471115,382.002228 45.879776,357.986816 
	C23.283070,331.632568 9.049076,301.097260 3.182269,266.761505 
	C2.898137,265.098602 1.747260,263.583771 1.000000,262.000000 
	C1.000000,243.979111 1.000000,225.958206 1.296638,207.265869 
	C2.329777,204.261200 3.305644,201.974274 3.767353,199.587875 
	C12.588812,153.992920 34.918861,116.347801 70.724724,86.890633 
	C100.762169,62.179081 135.383942,48.360058 174.158203,44.871597 
	C176.621964,44.649940 179.493042,43.578064 181.245682,41.919865 
	C185.213669,38.165668 188.571350,33.771172 192.230713,29.684992 
	C199.440735,21.634035 206.756165,13.676195 213.882431,5.552158 
	C216.504196,2.563298 218.407166,2.761310 221.174026,5.520015 
	C225.403046,9.736580 230.138977,13.440522 234.591660,17.437887 
	C242.757904,24.769054 250.841446,32.192570 259.030304,39.498184 
	C261.777344,41.948917 261.689850,43.972965 259.073273,46.541084 
	C256.923248,48.651253 255.276703,51.274387 253.472855,53.585827 
	C254.389526,54.449787 254.591553,54.761650 254.875809,54.887016 
	C256.091919,55.423355 257.322083,55.931690 258.565338,56.402164 
	C292.796692,69.356194 320.756927,90.772697 342.956879,119.673660 
	C361.545013,143.872604 373.216461,171.219925 378.616882,201.263412 
	C378.974731,203.254074 380.185791,205.091370 381.000000,207.000000 
M160.697891,303.973145 
	C161.902588,302.699951 163.107269,301.426758 164.866898,299.818512 
	C167.025894,297.601044 169.184891,295.383545 171.879044,292.848206 
	C173.008118,291.623108 174.137177,290.398041 175.837814,288.853973 
	C178.324509,286.296387 180.811188,283.738770 183.853882,280.883636 
	C185.286835,279.356781 186.719803,277.829956 188.748825,275.985107 
	C191.061462,274.129181 193.374100,272.273285 195.872711,270.268127 
	C192.429306,267.334717 190.119278,265.327820 187.768036,263.370392 
	C175.536118,253.187149 163.293701,243.016510 150.755402,232.263931 
	C148.840302,230.869690 146.925201,229.475449 144.419693,227.751526 
	C142.317520,225.816391 140.215347,223.881241 137.796127,221.349457 
	C135.548767,219.835236 133.301407,218.321014 130.756851,216.216873 
	C128.517609,214.419220 126.278358,212.621567 123.737488,210.279938 
	C122.884468,209.358490 122.031448,208.437057 120.786652,207.027924 
	C119.633224,206.124695 118.479797,205.221466 116.939781,203.848282 
	C115.646683,202.855499 114.353577,201.862717 112.710861,200.321579 
	C111.175186,199.068329 109.639503,197.815063 107.686806,196.093338 
	C106.160072,194.925613 104.633331,193.757904 102.821587,192.084885 
	C101.915787,191.364151 101.009995,190.643402 99.725563,189.402985 
	C98.527672,188.518402 97.329788,187.633835 95.731445,186.274734 
	C94.487953,185.182663 93.244453,184.090576 91.554329,182.560379 
	C90.373276,181.697739 89.192223,180.835098 87.638969,179.449387 
	C86.427444,178.625534 85.215919,177.801682 83.722992,176.420212 
	C80.625549,172.661636 79.258003,175.580399 78.034119,178.021851 
	C70.794815,192.463196 66.282181,207.760818 65.118408,223.847397 
	C63.182755,250.603760 68.649803,275.785522 82.504013,298.949310 
	C91.760956,314.426605 103.596359,327.519623 118.559013,337.687531 
	C120.938225,339.304352 123.389191,341.072449 126.521194,337.643555 
	C127.694565,336.453308 128.867935,335.263062 130.536911,333.713287 
	C131.377823,332.839172 132.218735,331.965088 133.577850,330.733704 
	C134.751434,329.546417 135.925034,328.359100 137.592941,326.800781 
	C138.447937,325.922150 139.302948,325.043518 140.670334,323.808472 
	C141.827164,322.623901 142.983978,321.439301 144.667343,319.861328 
	C146.195786,318.306641 147.724228,316.751953 149.765976,314.833588 
	C150.931656,313.618958 152.097351,312.404327 153.776337,310.852051 
	C154.907288,309.670532 156.038239,308.489014 157.685898,306.986816 
	C158.504089,306.100586 159.322266,305.214355 160.697891,303.973145 
M238.385880,227.428925 
	C239.875916,228.640289 241.365952,229.851639 243.229263,231.623337 
	C246.385651,234.169891 249.542038,236.716446 253.085480,239.800995 
	C255.315796,241.586853 257.546112,243.372726 260.146271,245.716797 
	C262.072754,247.294174 263.999207,248.871552 266.303589,250.907013 
	C267.528900,251.971588 268.754242,253.036163 270.306763,254.583786 
	C270.815460,254.866119 271.324158,255.148453 272.249054,255.916489 
	C274.475494,257.691406 276.701904,259.466278 279.284729,261.737274 
	C280.525116,262.816681 281.765472,263.896057 282.908112,265.617920 
	C282.259155,266.733185 281.610229,267.848450 280.400909,269.320190 
	C274.742035,274.911133 269.036133,280.455444 263.433807,286.102509 
	C250.596390,299.042419 237.809525,312.032440 224.458923,325.321655 
	C223.280914,326.506470 222.102890,327.691284 220.376373,329.254364 
	C217.905411,331.819855 215.434464,334.385345 212.426788,337.325500 
	C210.603027,339.207306 208.779266,341.089111 206.425003,343.333801 
	C204.934738,344.875366 203.444458,346.416901 201.419342,348.334961 
	C199.607651,350.222595 197.795944,352.110199 195.444733,354.370697 
	C194.203201,355.740417 192.961685,357.110138 190.825592,359.466797 
	C193.976730,359.718872 195.735901,360.062561 197.471420,359.968781 
	C240.720245,357.631653 274.087646,337.703796 297.405151,301.740509 
	C313.386627,277.091827 319.487640,249.582230 316.145996,220.092957 
	C313.278534,194.788086 303.496368,172.357468 287.289917,153.135483 
	C267.008209,129.079971 240.843094,114.686523 209.581604,109.689728 
	C204.533234,108.882797 200.717224,109.473900 197.483429,114.387299 
	C196.304001,115.913986 195.124573,117.440666 193.499237,119.312462 
	C192.998352,119.870850 192.497467,120.429237 191.458847,121.365227 
	C189.931488,123.220810 188.404144,125.076393 186.357910,127.303711 
	C184.879379,128.832047 183.400848,130.360382 181.450104,132.344635 
	C179.913986,134.206558 178.377869,136.068481 176.327225,138.295700 
	C175.147202,139.751999 173.967178,141.208298 172.232407,143.043579 
	C169.019043,146.638885 165.805679,150.234192 162.083847,154.200989 
	C161.318588,156.504562 155.711639,157.303543 160.209534,161.641769 
	C160.972290,162.152100 161.735031,162.662415 162.884277,163.727127 
	C164.602997,165.146362 166.321716,166.565598 168.384079,168.552902 
	C170.946243,170.621582 173.508408,172.690262 176.465088,175.308044 
	C179.026047,177.396255 181.586990,179.484467 184.596970,182.067123 
	C186.679855,183.733887 188.762741,185.400665 191.194077,187.644241 
	C206.806122,200.725983 222.418182,213.807724 238.385880,227.428925 
z"/>
<path fill="#000000" opacity="1.000000" stroke="none" 
	d="
M381.000000,206.531342 
	C380.185791,205.091370 378.974731,203.254074 378.616882,201.263412 
	C373.216461,171.219925 361.545013,143.872604 342.956879,119.673660 
	C320.756927,90.772697 292.796692,69.356194 258.565338,56.402164 
	C257.322083,55.931690 256.091919,55.423355 254.875809,54.887016 
	C254.591553,54.761650 254.389526,54.449787 253.472855,53.585827 
	C255.276703,51.274387 256.923248,48.651253 259.073273,46.541084 
	C261.689850,43.972965 261.777344,41.948917 259.030304,39.498184 
	C250.841446,32.192570 242.757904,24.769054 234.591660,17.437887 
	C230.138977,13.440522 225.403046,9.736580 221.174026,5.520015 
	C218.407166,2.761310 216.504196,2.563298 213.882431,5.552158 
	C206.756165,13.676195 199.440735,21.634035 192.230713,29.684992 
	C188.571350,33.771172 185.213669,38.165668 181.245682,41.919865 
	C179.493042,43.578064 176.621964,44.649940 174.158203,44.871597 
	C135.383942,48.360058 100.762169,62.179081 70.724724,86.890633 
	C34.918861,116.347801 12.588812,153.992920 3.767353,199.587875 
	C3.305644,201.974274 2.329777,204.261200 1.296638,206.797211 
	C1.000000,138.371262 1.000000,69.742531 1.000000,1.056899 
	C127.558731,1.056899 254.117508,1.056899 381.000000,1.056899 
	C381.000000,69.353889 381.000000,137.708282 381.000000,206.531342 
z"/>
<path fill="#000000" opacity="1.000000" stroke="none" 
	d="
M1.000000,262.468658 
	C1.747260,263.583771 2.898137,265.098602 3.182269,266.761505 
	C9.049076,301.097260 23.283070,331.632568 45.879776,357.986816 
	C66.471115,382.002228 91.159409,401.176117 121.246658,411.485413 
	C136.943283,416.863800 148.406754,427.153229 160.532425,437.109772 
	C183.171127,455.698761 205.686050,474.438812 228.197113,493.182526 
	C231.229431,495.707367 233.940994,498.617493 236.900543,501.674591 
	C158.405685,502.000000 79.811363,502.000000 1.000000,502.000000 
	C1.000000,422.312561 1.000000,342.624939 1.000000,262.468658 
z"/>
<path fill="#000000" opacity="1.000000" stroke="none" 
	d="
M243.468658,502.000000 
	C246.724838,496.781372 250.214706,491.373779 254.226257,486.385712 
	C261.315308,477.571075 268.625275,468.927948 276.036469,460.381012 
	C279.775024,456.069580 276.680817,453.958252 273.790588,451.563232 
	C262.131897,441.902222 250.483826,432.228424 238.810654,422.585022 
	C238.178329,422.062653 237.353439,421.773438 236.618179,421.375702 
	C236.746231,420.913849 236.874283,420.451996 237.002335,419.990173 
	C239.068268,419.255615 241.098160,418.391205 243.205658,417.806366 
	C266.959290,411.214691 288.579285,400.247589 307.829071,384.986877 
	C328.366974,368.704956 345.469604,349.356018 358.040314,326.103546 
	C368.042694,307.601746 374.842377,288.088806 378.654755,267.460388 
	C378.975159,265.726746 379.810608,264.088287 380.703369,262.202789 
	C381.000000,341.907318 381.000000,421.814636 381.000000,502.000000 
	C335.312805,502.000000 289.625061,502.000000 243.468658,502.000000 
z"/>
<path fill="#0E1A1A" opacity="1.000000" stroke="none" 
	d="
M197.986267,113.987923 
	C200.717224,109.473900 204.533234,108.882797 209.581604,109.689728 
	C240.843094,114.686523 267.008209,129.079971 287.289917,153.135483 
	C303.496368,172.357468 313.278534,194.788086 316.145996,220.092957 
	C319.487640,249.582230 313.386627,277.091827 297.405151,301.740509 
	C274.087646,337.703796 240.720245,357.631653 197.471420,359.968781 
	C195.735901,360.062561 193.976730,359.718872 190.825592,359.466797 
	C192.961685,357.110138 194.203201,355.740417 196.087830,354.266052 
	C198.544830,354.198029 200.375137,354.411438 202.170242,354.245087 
	C234.016022,351.293488 260.498962,337.621338 281.627747,313.774048 
	C299.096527,294.057678 308.771973,270.772095 310.893890,244.589661 
	C313.012848,218.443756 307.524750,193.824371 293.636932,171.420654 
	C281.146027,151.270432 264.219635,135.906342 242.707550,125.661285 
	C228.521408,118.905190 213.539001,115.404587 197.986267,113.987923 
z"/>
<path fill="#0C3B38" opacity="1.000000" stroke="none" 
	d="
M212.963501,336.950836 
	C215.434464,334.385345 217.905411,331.819855 220.824921,329.335754 
	C222.938171,329.439178 224.754593,329.913391 226.244156,329.413513 
	C241.947632,324.143860 254.898331,314.700409 265.937378,302.545166 
	C287.346100,278.971802 295.210602,251.067520 291.158051,219.855270 
	C288.088104,196.210648 277.229370,176.392899 259.696564,160.102646 
	C243.506805,145.060272 224.635620,136.216049 202.668518,133.957535 
	C195.755295,133.246750 188.837830,132.577148 181.922302,131.888718 
	C183.400848,130.360382 184.879379,128.832047 187.081802,127.133621 
	C191.779877,127.295456 195.752090,127.653069 199.728531,127.955231 
	C230.498642,130.293350 255.742477,143.774933 274.583099,167.771713 
	C299.288818,199.238678 304.936798,234.661606 290.904572,272.225006 
	C278.236542,306.136688 253.557892,327.757690 218.762497,337.692627 
	C217.040482,338.184296 214.905945,337.231201 212.963501,336.950836 
z"/>
<path fill="#0E2221" opacity="1.000000" stroke="none" 
	d="
M197.734848,114.187607 
	C213.539001,115.404587 228.521408,118.905190 242.707550,125.661285 
	C264.219635,135.906342 281.146027,151.270432 293.636932,171.420654 
	C307.524750,193.824371 313.012848,218.443756 310.893890,244.589661 
	C308.771973,270.772095 299.096527,294.057678 281.627747,313.774048 
	C260.498962,337.621338 234.016022,351.293488 202.170242,354.245087 
	C200.375137,354.411438 198.544830,354.198029 196.357574,354.079590 
	C197.795944,352.110199 199.607651,350.222595 201.927292,348.398071 
	C204.322250,348.680298 206.283264,349.348755 208.085297,349.051941 
	C241.270538,343.586243 268.000610,327.456421 286.851959,299.506256 
	C303.384094,274.994720 309.819824,247.760391 305.715515,218.284698 
	C303.148895,199.852097 296.920654,182.512360 286.080933,167.583282 
	C274.924591,152.218079 261.284729,139.145111 243.400803,131.050995 
	C227.582657,123.891823 211.512985,118.578903 193.945160,118.967346 
	C195.124573,117.440666 196.304001,115.913986 197.734848,114.187607 
z"/>
<path fill="#0D3533" opacity="1.000000" stroke="none" 
	d="
M212.695129,337.138184 
	C214.905945,337.231201 217.040482,338.184296 218.762497,337.692627 
	C253.557892,327.757690 278.236542,306.136688 290.904572,272.225006 
	C304.936798,234.661606 299.288818,199.238678 274.583099,167.771713 
	C255.742477,143.774933 230.498642,130.293350 199.728531,127.955231 
	C195.752090,127.653069 191.779877,127.295456 187.341248,126.947754 
	C188.404144,125.076393 189.931488,123.220810 191.997070,121.446823 
	C196.409622,122.136185 200.276978,122.793213 204.159378,123.344040 
	C241.349915,128.620575 269.968872,147.082199 288.428253,179.860260 
	C305.109619,209.481171 307.392487,240.818924 295.981506,272.890533 
	C288.768250,293.164185 276.201324,309.714233 259.317200,322.992188 
	C245.435318,333.909119 229.628860,340.653900 212.403168,344.114349 
	C210.731308,344.450195 208.778107,343.385468 206.955490,342.970886 
	C208.779266,341.089111 210.603027,339.207306 212.695129,337.138184 
z"/>
<path fill="#0A5B56" opacity="1.000000" stroke="none" 
	d="
M278.928345,261.241180 
	C276.701904,259.466278 274.475494,257.691406 272.198242,255.292267 
	C273.079803,250.631012 274.597473,246.630234 274.850189,242.551117 
	C276.573212,214.738342 268.415863,190.484085 247.160400,171.823181 
	C228.845047,155.743484 207.314575,148.166290 182.736389,150.765182 
	C175.989136,151.478653 169.305252,152.791611 162.592316,153.829483 
	C165.805679,150.234192 169.019043,146.638885 172.841064,143.044830 
	C174.918503,143.092010 176.387863,143.190475 177.855988,143.174881 
	C184.802078,143.101059 191.780884,142.514481 198.687790,142.988510 
	C223.858887,144.715958 244.953079,155.306564 260.917664,174.673279 
	C281.929260,200.162476 288.330658,229.180252 278.928345,261.241180 
z"/>
<path fill="#0D2A28" opacity="1.000000" stroke="none" 
	d="
M206.690247,343.152344 
	C208.778107,343.385468 210.731308,344.450195 212.403168,344.114349 
	C229.628860,340.653900 245.435318,333.909119 259.317200,322.992188 
	C276.201324,309.714233 288.768250,293.164185 295.981506,272.890533 
	C307.392487,240.818924 305.109619,209.481171 288.428253,179.860260 
	C269.968872,147.082199 241.349915,128.620575 204.159378,123.344040 
	C200.276978,122.793213 196.409622,122.136185 192.265930,121.258026 
	C192.497467,120.429237 192.998352,119.870850 193.722198,119.139900 
	C211.512985,118.578903 227.582657,123.891823 243.400803,131.050995 
	C261.284729,139.145111 274.924591,152.218079 286.080933,167.583282 
	C296.920654,182.512360 303.148895,199.852097 305.715515,218.284698 
	C309.819824,247.760391 303.384094,274.994720 286.851959,299.506256 
	C268.000610,327.456421 241.270538,343.586243 208.085297,349.051941 
	C206.283264,349.348755 204.322250,348.680298 202.194702,348.209808 
	C203.444458,346.416901 204.934738,344.875366 206.690247,343.152344 
z"/>
<path fill="#0C4441" opacity="1.000000" stroke="none" 
	d="
M181.686203,132.116669 
	C188.837830,132.577148 195.755295,133.246750 202.668518,133.957535 
	C224.635620,136.216049 243.506805,145.060272 259.696564,160.102646 
	C277.229370,176.392899 288.088104,196.210648 291.158051,219.855270 
	C295.210602,251.067520 287.346100,278.971802 265.937378,302.545166 
	C254.898331,314.700409 241.947632,324.143860 226.244156,329.413513 
	C224.754593,329.913391 222.938171,329.439178 221.099182,329.146637 
	C222.102890,327.691284 223.280914,326.506470 225.038788,325.309509 
	C227.059769,325.187164 228.668793,325.459045 229.917084,324.910278 
	C253.423264,314.577057 270.625305,297.849121 280.784088,274.152557 
	C281.419647,272.670105 280.928345,270.704529 280.961304,268.963715 
	C281.610229,267.848450 282.259155,266.733185 283.004761,264.905243 
	C286.956116,249.945053 288.749786,235.563171 286.836426,220.775162 
	C281.801880,181.863541 249.820938,147.191910 211.122620,140.143219 
	C199.932556,138.105011 188.281494,138.597885 176.841766,137.930389 
	C178.377869,136.068481 179.913986,134.206558 181.686203,132.116669 
z"/>
<path fill="#08817A" opacity="1.000000" stroke="none" 
	d="
M176.267838,175.033478 
	C181.457520,170.427597 187.998764,170.779037 194.115433,171.221252 
	C225.109619,173.462006 248.332504,194.651199 253.404205,225.195557 
	C254.118484,229.497238 253.251953,234.061386 252.907776,238.883530 
	C249.542038,236.716446 246.385651,234.169891 243.337662,231.140701 
	C243.801895,229.137817 244.682404,227.526230 244.435944,226.110855 
	C239.720337,199.028885 218.961624,181.233810 191.377029,180.089859 
	C188.991943,179.990936 186.558777,181.050995 184.147949,181.572678 
	C181.586990,179.484467 179.026047,177.396255 176.267838,175.033478 
z"/>
<path fill="#08817A" opacity="1.000000" stroke="none" 
	d="
M124.039108,210.823929 
	C126.278358,212.621567 128.517609,214.419220 130.885437,216.948700 
	C130.667358,220.144867 130.353027,222.614288 129.969131,225.072830 
	C125.309319,254.915787 142.661942,283.481262 171.343872,293.166077 
	C169.184891,295.383545 167.025894,297.601044 164.222015,299.876617 
	C148.607071,293.629974 137.140671,283.258545 129.203796,269.225952 
	C118.687393,250.632645 117.403526,231.030869 124.039108,210.823929 
z"/>
<path fill="#097770" opacity="1.000000" stroke="none" 
	d="
M259.961334,245.437698 
	C263.679016,239.912277 262.226532,233.851852 261.715302,228.254639 
	C258.719696,195.457794 232.720383,167.454803 198.943954,163.920944 
	C188.404526,162.818253 178.439270,163.709625 168.364746,167.829041 
	C166.321716,166.565598 164.602997,165.146362 163.091522,163.341797 
	C197.894455,150.834656 232.637711,161.121353 253.502045,190.130081 
	C266.546051,208.265823 270.107910,228.627563 265.925659,250.448914 
	C263.999207,248.871552 262.072754,247.294174 259.961334,245.437698 
z"/>
<path fill="#0B4F4B" opacity="1.000000" stroke="none" 
	d="
M176.584503,138.113037 
	C188.281494,138.597885 199.932556,138.105011 211.122620,140.143219 
	C249.820938,147.191910 281.801880,181.863541 286.836426,220.775162 
	C288.749786,235.563171 286.956116,249.945053 283.053650,264.584015 
	C281.765472,263.896057 280.525116,262.816681 279.106537,261.489227 
	C288.330658,229.180252 281.929260,200.162476 260.917664,174.673279 
	C244.953079,155.306564 223.858887,144.715958 198.687790,142.988510 
	C191.780884,142.514481 184.802078,143.101059 177.855988,143.174881 
	C176.387863,143.190475 174.918503,143.092010 173.118439,142.855347 
	C173.967178,141.208298 175.147202,139.751999 176.584503,138.113037 
z"/>
<path fill="#0C4441" opacity="1.000000" stroke="none" 
	d="
M100.104202,189.922653 
	C101.009995,190.643402 101.915787,191.364151 102.864456,192.727676 
	C102.631119,194.155624 102.399406,194.959839 102.072334,195.723206 
	C86.080864,233.045471 93.913902,274.679962 122.798126,303.102173 
	C129.270966,309.471497 136.993546,314.570770 144.140793,320.254730 
	C142.983978,321.439301 141.827164,322.623901 140.119598,323.781921 
	C124.850723,314.540009 112.378662,303.039215 103.375458,288.041626 
	C86.293457,259.586273 83.731422,229.636703 94.534683,198.469986 
	C95.615463,195.351990 98.211433,192.759201 100.104202,189.922653 
z"/>
<path fill="#0B4F4B" opacity="1.000000" stroke="none" 
	d="
M144.404068,320.058044 
	C136.993546,314.570770 129.270966,309.471497 122.798126,303.102173 
	C93.913902,274.679962 86.080864,233.045471 102.072334,195.723206 
	C102.399406,194.959839 102.631119,194.155624 103.006958,192.980316 
	C104.633331,193.757904 106.160072,194.925613 107.798187,196.718002 
	C106.360733,201.555923 104.497910,205.682846 103.311790,209.995865 
	C91.819839,251.783432 110.796555,295.133026 149.252655,315.197266 
	C147.724228,316.751953 146.195786,318.306641 144.404068,320.058044 
z"/>
<path fill="#0E1A1A" opacity="1.000000" stroke="none" 
	d="
M83.863693,176.699005 
	C76.732338,189.736267 72.379547,203.508133 70.375786,217.975555 
	C67.165558,241.153870 70.512947,263.522827 80.245667,284.749878 
	C89.670067,305.304474 103.614212,322.257599 122.468185,334.991302 
	C123.565109,335.732178 124.544434,336.647156 125.789085,337.739258 
	C123.389191,341.072449 120.938225,339.304352 118.559013,337.687531 
	C103.596359,327.519623 91.760956,314.426605 82.504013,298.949310 
	C68.649803,275.785522 63.182755,250.603760 65.118408,223.847397 
	C66.282181,207.760818 70.794815,192.463196 78.034119,178.021851 
	C79.258003,175.580399 80.625549,172.661636 83.863693,176.699005 
z"/>
<path fill="#096C66" opacity="1.000000" stroke="none" 
	d="
M266.114624,250.677979 
	C270.107910,228.627563 266.546051,208.265823 253.502045,190.130081 
	C232.637711,161.121353 197.894455,150.834656 162.898285,163.064606 
	C161.735031,162.662415 160.972290,162.152100 160.231659,161.082047 
	C162.060745,159.442047 163.740707,157.940506 165.695663,157.351059 
	C176.922958,153.966034 188.236588,152.365784 200.116852,153.862427 
	C225.314377,157.036758 244.911346,169.004761 258.860840,190.015564 
	C271.899445,209.654358 274.766602,231.264587 269.979584,254.100739 
	C268.754242,253.036163 267.528900,251.971588 266.114624,250.677979 
z"/>
<path fill="#069F96" opacity="1.000000" stroke="none" 
	d="
M183.297882,281.181183 
	C180.811188,283.738770 178.324509,286.296387 175.221924,288.839172 
	C172.809906,287.970917 171.047134,287.037018 169.212555,286.276276 
	C146.034683,276.665375 131.866745,252.261078 135.244415,227.380646 
	C135.503189,225.474442 137.124954,223.753281 138.113174,221.946106 
	C140.215347,223.881241 142.317520,225.816391 144.710541,228.378204 
	C144.996643,230.337601 145.099548,231.680817 144.970993,233.001495 
	C143.063812,252.595749 157.698441,273.627075 178.155457,279.252197 
	C179.913467,279.735626 181.585770,280.530823 183.297882,281.181183 
z"/>
<path fill="#0A5B56" opacity="1.000000" stroke="none" 
	d="
M149.509323,315.015442 
	C110.796555,295.133026 91.819839,251.783432 103.311790,209.995865 
	C104.497910,205.682846 106.360733,201.555923 108.006699,196.952240 
	C109.639503,197.815063 111.175186,199.068329 112.724625,200.923401 
	C102.429489,224.771118 103.567612,247.943451 113.954681,270.700104 
	C122.188866,288.740112 135.893799,301.833466 153.263031,311.189697 
	C152.097351,312.404327 150.931656,313.618958 149.509323,315.015442 
z"/>
<path fill="#05B8AE" opacity="1.000000" stroke="none" 
	d="
M151.054947,232.841492 
	C163.293701,243.016510 175.536118,253.187149 187.768036,263.370392 
	C190.119278,265.327820 192.429306,267.334717 195.872711,270.268127 
	C193.374100,272.273285 191.061462,274.129181 188.125824,275.936157 
	C184.979263,275.083618 182.476868,274.204773 179.928635,273.489105 
	C167.192123,269.912018 158.413574,261.610504 153.608429,249.662354 
	C151.548920,244.541351 151.834747,238.477142 151.054947,232.841492 
z"/>
<path fill="#0A6560" opacity="1.000000" stroke="none" 
	d="
M153.519684,311.020874 
	C135.893799,301.833466 122.188866,288.740112 113.954681,270.700104 
	C103.567612,247.943451 102.429489,224.771118 112.899429,201.197571 
	C114.353577,201.862717 115.646683,202.855499 116.957489,204.472443 
	C103.670113,236.339661 113.690704,274.314362 139.962448,295.440430 
	C145.377426,299.794800 151.417328,303.372070 157.169189,307.307495 
	C156.038239,308.489014 154.907288,309.670532 153.519684,311.020874 
z"/>
<path fill="#0D2A28" opacity="1.000000" stroke="none" 
	d="
M130.289093,333.893036 
	C122.676666,327.865265 114.802437,322.163910 108.041374,315.356903 
	C86.300636,293.468475 75.479019,266.943329 74.880463,235.970230 
	C74.500427,216.304672 79.391716,198.130600 87.853439,180.292633 
	C89.192223,180.835098 90.373276,181.697739 91.777641,182.779449 
	C88.823891,190.424515 84.685303,197.595093 82.633057,205.319931 
	C72.754852,242.502380 80.180092,276.420502 104.723000,305.871643 
	C112.585281,315.306244 123.157173,322.482788 132.774490,330.891724 
	C132.218735,331.965088 131.377823,332.839172 130.289093,333.893036 
z"/>
<path fill="#0B4F4B" opacity="1.000000" stroke="none" 
	d="
M280.681091,269.141968 
	C280.928345,270.704529 281.419647,272.670105 280.784088,274.152557 
	C270.625305,297.849121 253.423264,314.577057 229.917084,324.910278 
	C228.668793,325.459045 227.059769,325.187164 225.310394,325.149719 
	C237.809525,312.032440 250.596390,299.042419 263.433807,286.102509 
	C269.036133,280.455444 274.742035,274.911133 280.681091,269.141968 
z"/>
<path fill="#05ADA3" opacity="1.000000" stroke="none" 
	d="
M238.030243,226.889465 
	C222.418182,213.807724 206.806122,200.725983 191.411560,187.217361 
	C194.903885,186.743561 198.276215,186.163635 201.436737,186.741684 
	C215.369431,189.289902 225.509018,197.569412 232.879456,209.220673 
	C236.194275,214.460770 239.417847,220.104004 238.030243,226.889465 
z"/>
</svg>
